HIERARCHY
ROOT Pelvis
{
	OFFSET 0.000000 0.000000 0.000000
	CHANNELS 6 Xposition Yposition Zposition Xrotation Yrotation Zrotation
	JOINT LeftUpLeg_virtual
	{
		OFFSET 0.000000 0.000000 0.000000
		CHANNELS 3 Xrotation Yrotation Zrotation
		JOINT LeftUpLeg
		{
			OFFSET 18.735201 -5.666702 -4.541200
			CHANNELS 3 Xrotation Yrotation Zrotation
			JOINT LeftLeg
			{
				OFFSET -0.021200 -31.938179 0.493100
				CHANNELS 3 Xrotation Yrotation Zrotation
				JOINT LeftFoot
				{
					OFFSET 0.021200 -31.938179 -4.336299
					CHANNELS 3 Xrotation Yrotation Zrotation
					JOINT LeftToeBase
					{
						OFFSET 0.943001 -26.722000 15.023500
						CHANNELS 3 Xrotation Yrotation Zrotation
						End Site
						{
							OFFSET 0 0 0
						}
					}
				}
			}
		}
	}
	JOINT RightUpLeg_virtual
	{
		OFFSET 0.000000 0.000000 0.000000
		CHANNELS 3 Xrotation Yrotation Zrotation
		JOINT RightUpLeg
		{
			OFFSET -18.735201 -5.666702 -4.541200
			CHANNELS 3 Xrotation Yrotation Zrotation
			JOINT RightLeg
			{
				OFFSET 0.018946 -31.938133 0.493100
				CHANNELS 3 Xrotation Yrotation Zrotation
				JOINT RightFoot
				{
					OFFSET -0.018946 -31.938126 -4.336299
					CHANNELS 3 Xrotation Yrotation Zrotation
					JOINT RightToeBase
					{
						OFFSET -0.943001 -26.722004 15.023500
						CHANNELS 3 Xrotation Yrotation Zrotation
						End Site
						{
							OFFSET 0 0 0
						}
					}
				}
			}
		}
	}
	JOINT Hips_virtual
	{
		OFFSET 0.000000 0.000000 0.000000
		CHANNELS 3 Xrotation Yrotation Zrotation
		JOINT Hips
		{
			OFFSET -0.000000 -0.000000 -0.000000
			CHANNELS 3 Xrotation Yrotation Zrotation
			JOINT Spine
			{
				OFFSET 0.000000 10.199997 -0.299500
				CHANNELS 3 Xrotation Yrotation Zrotation
				JOINT Spine1
				{
					OFFSET 0.000000 11.900002 -1.516600
					CHANNELS 3 Xrotation Yrotation Zrotation
					JOINT Spine2
					{
						OFFSET 0.000000 13.600006 -2.842500
						CHANNELS 3 Xrotation Yrotation Zrotation
						JOINT Neck_virtual
						{
							OFFSET 0.000000 0.000000 0.000000
							CHANNELS 3 Xrotation Yrotation Zrotation
							JOINT Neck
							{
								OFFSET 0.000000 9.624100 -2.890100
								CHANNELS 3 Xrotation Yrotation Zrotation
								JOINT Head
								{
									OFFSET 0.000000 14.068802 -1.351900
									CHANNELS 3 Xrotation Yrotation Zrotation
									End Site
									{
										OFFSET 0 0 0
									}
								}
							}
						}
						JOINT LeftShoulder_virtual
						{
							OFFSET 0.000000 0.000000 0.000000
							CHANNELS 3 Xrotation Yrotation Zrotation
							JOINT LeftShoulder
							{
								OFFSET 15.263000 10.923401 -0.547700
								CHANNELS 3 Xrotation Yrotation Zrotation
								JOINT LeftArm
								{
									OFFSET 25.438599 -2.830597 -13.032500
									CHANNELS 3 Xrotation Yrotation Zrotation
									JOINT LeftForeArm
									{
										OFFSET 29.960503 0.000000 0.000000
										CHANNELS 3 Xrotation Yrotation Zrotation
										JOINT LeftHand
										{
											OFFSET 27.849251 0.000000 0.000000
											CHANNELS 3 Xrotation Yrotation Zrotation
											End Site
											{
												OFFSET 0 0 0
											}
										}
									}
								}
							}
						}
						JOINT RightShoulder_virtual
						{
							OFFSET 0.000000 0.000000 0.000000
							CHANNELS 3 Xrotation Yrotation Zrotation
							JOINT RightShoulder
							{
								OFFSET -15.263000 10.923401 -0.547700
								CHANNELS 3 Xrotation Yrotation Zrotation
								JOINT RightArm
								{
									OFFSET -25.438599 -2.830597 -13.032500
									CHANNELS 3 Xrotation Yrotation Zrotation
									JOINT RightForeArm
									{
										OFFSET -29.960503 0.000000 0.000000
										CHANNELS 3 Xrotation Yrotation Zrotation
										JOINT RightHand
										{
											OFFSET -27.849251 0.000000 0.000000
											CHANNELS 3 Xrotation Yrotation Zrotation
											End Site
											{
												OFFSET 0 0 0
											}
										}
									}
								}
							}
						}
					}
				}
			}
		}
	}
}
MOTION
Frames: 9
Frame Time: 0.03333333
-3.916342 83.270355 2.332138 0.000000 0.000000 0.000000 3.004777 -58.203245 6.441833 -38.301843 6.311069 29.650555 47.035790 -9.822859 -10.645411 -10.049959 -1.879521 -11.956708 0.000000 0.000000 0.000000 3.004777 -58.203245 6.441833 -34.545741 -3.812530 -30.706020 55.038976 4.468125 -7.825150 -22.928404 0.222264 25.857686 0.000000 0.000000 0.000000 3.004777 -58.203245 6.441833 0.000000 0.000000 0.000000 11.191378 0.081089 -2.661025 8.434585 0.027705 -5.592322 0.000000 0.000000 0.000000 8.457051 0.027864 -5.591870 -3.775665 5.323472 1.581315 0.000000 0.000000 0.000000 8.457051 0.027864 -5.591870 -6.221667 -11.503861 -4.023831 -23.062170 9.568536 -36.639607 0.046108 -43.169108 -0.011155 0.000000 0.000000 0.000000 8.457051 0.027864 -5.591870 -5.488232 10.658263 2.466534 -41.473800 -26.755596 30.079071 -155.044529 68.137018 156.691534 0.000000 0.000000 0.000000 
-4.076287 83.143524 2.593040 0.000000 0.000000 0.000000 1.747115 -58.136986 5.213316 -37.913110 6.047381 29.798684 48.066643 -10.146391 -10.546758 -10.811824 -1.737164 -11.890114 0.000000 0.000000 0.000000 1.747115 -58.136986 5.213316 -34.114176 -4.626955 -31.735733 55.368652 5.746843 -7.088635 -23.362396 0.376145 25.135943 0.000000 0.000000 0.000000 1.747115 -58.136986 5.213316 0.000000 -0.000001 0.000000 11.142161 0.031995 -2.583995 8.334201 -0.045756 -5.404247 0.000000 0.000000 0.000000 8.356674 -0.045670 -5.403788 -3.838171 5.243539 1.604121 0.000000 0.000000 0.000000 8.356674 -0.045670 -5.403788 -6.328842 -11.488492 -3.983637 -22.131666 10.073043 -36.144026 2.769436 -44.886880 0.926461 0.000000 0.000000 0.000000 8.356674 -0.045670 -5.403788 -5.548074 9.866002 1.937135 -37.030537 -24.874092 32.856929 -164.018278 70.090841 164.779147 0.000000 0.000000 0.000000 
-4.559812 82.849937 3.214958 0.000000 0.000000 0.000000 -0.013693 -57.844742 3.483924 -37.392625 5.720527 30.278830 49.885489 -11.087384 -10.741359 -12.333770 -1.570290 -11.480825 0.000000 0.000000 0.000000 -0.013693 -57.844742 3.483924 -32.661999 -5.336650 -32.522888 55.786294 6.373613 -6.850862 -24.355179 0.175777 25.236997 0.000000 0.000000 0.000000 -0.013693 -57.844742 3.483924 0.000000 0.000000 0.000000 10.987846 -0.080837 -2.389612 8.021432 -0.218875 -4.943915 0.000000 0.000000 0.000000 8.043890 -0.218785 -4.943431 -3.918366 5.044168 1.661424 0.000000 0.000000 0.000000 8.043890 -0.218785 -4.943431 -6.517729 -11.266676 -3.808850 -19.916943 11.490712 -34.664258 8.966803 -49.187846 3.756278 0.000000 0.000000 0.000000 8.043890 -0.218785 -4.943431 -5.677150 8.006201 0.598005 -27.295041 -19.926472 37.715444 167.963490 72.488265 -168.579833 0.000000 0.000000 0.000000 
-5.233197 82.694992 3.928516 0.000000 0.000000 0.000000 -1.821229 -57.320061 1.624720 -36.627514 5.443368 30.758855 51.320826 -12.156954 -10.819167 -13.700462 -1.434161 -11.078934 0.000000 0.000000 0.000000 -1.821229 -57.320061 1.624720 -30.231807 -6.009918 -32.522359 55.521081 5.988610 -7.107260 -25.294526 -0.211114 25.965275 0.000000 0.000000 0.000000 -1.821229 -57.320061 1.624720 0.000000 -0.000001 0.000000 10.732974 -0.212718 -2.144335 7.508712 -0.422822 -4.366855 0.000000 0.000000 0.000000 7.531189 -0.422714 -4.366380 -3.870152 4.784007 1.731624 0.000000 0.000000 0.000000 7.531189 -0.422714 -4.366380 -6.671763 -10.584845 -3.418114 -17.246735 13.730735 -32.214656 15.504856 -54.870714 8.081087 0.000000 0.000000 0.000000 7.531189 -0.422714 -4.366380 -5.864168 5.845921 -1.136027 -16.889873 -14.076086 40.489047 134.153344 69.231200 -135.011216 0.000000 0.000000 0.000000 
-6.099895 83.074409 4.503407 0.000000 0.000000 0.000000 -3.256549 -56.433031 -0.095109 -35.325663 5.146448 30.905196 51.153496 -12.724836 -10.560074 -14.138267 -1.356447 -10.917339 0.000000 0.000000 0.000000 -3.256549 -56.433031 -0.095109 -26.848222 -7.497079 -31.581067 53.466062 4.852228 -7.646359 -25.608196 -0.491069 26.806447 0.000000 0.000000 0.000000 -3.256549 -56.433031 -0.095109 0.000000 -0.000002 0.000000 10.321518 -0.333303 -1.892478 6.683862 -0.605013 -3.764426 0.000000 0.000000 0.000000 6.706355 -0.604950 -3.763942 -3.464841 4.482107 1.794526 0.000000 0.000000 0.000000 6.706355 -0.604950 -3.763942 -6.731943 -8.817954 -2.534494 -14.611216 17.347630 -27.846792 15.807389 -62.632589 10.018924 0.000000 0.000000 0.000000 6.706355 -0.604950 -3.763942 -6.149590 3.829278 -2.217233 -7.965878 -10.783691 39.300806 117.184572 60.610559 -116.483235 0.000000 0.000000 0.000000 
-7.175822 83.917274 5.084427 0.000000 0.000000 0.000000 -4.750636 -54.909270 -1.888632 -33.270210 4.935911 30.540105 49.590018 -12.992321 -10.014167 -14.108069 -1.388918 -10.695830 0.000000 0.000000 0.000000 -4.750636 -54.909270 -1.888632 -22.015720 -9.812286 -30.017551 49.506423 3.117714 -8.344276 -25.333102 -0.687818 27.818162 0.000000 0.000000 0.000000 -4.750636 -54.909270 -1.888632 0.000000 -0.000001 0.000000 9.888398 -0.449391 -1.618504 5.818347 -0.783968 -3.101363 0.000000 0.000000 0.000000 5.840831 -0.783905 -3.100878 -2.789506 4.129480 1.842957 0.000000 0.000000 0.000000 5.840831 -0.783905 -3.100878 -6.706133 -6.010125 -0.294669 -12.280391 22.647376 -22.166807 10.216775 -71.763404 7.796371 0.000000 0.000000 0.000000 5.840831 -0.783905 -3.100878 -6.491983 1.459278 -4.091280 0.842979 -11.247527 37.125404 112.048714 55.607360 -111.142997 0.000000 0.000000 0.000000 
-8.320490 84.980949 5.679543 0.000000 0.000000 0.000000 -5.887261 -53.059276 -3.301182 -30.978972 4.978075 30.176151 46.871589 -13.445710 -9.620882 -13.452442 -1.496020 -10.495899 0.000000 0.000000 0.000000 -5.887261 -53.059276 -3.301182 -16.534459 -12.412232 -28.150001 44.180601 1.424111 -8.898787 -24.409527 -0.696043 28.679199 0.000000 0.000000 0.000000 -5.887261 -53.059276 -3.301182 0.000000 -0.000002 0.000000 9.481249 -0.514840 -1.390844 5.005531 -0.881178 -2.529628 0.000000 0.000000 0.000000 5.028016 -0.881104 -2.529151 -1.991570 3.610787 1.875473 0.000000 0.000000 0.000000 5.028016 -0.881104 -2.529151 -6.864992 -2.507083 2.262228 -11.621983 29.209424 -15.336230 9.839460 -81.243816 9.945929 0.000000 0.000000 0.000000 5.028016 -0.881104 -2.529151 -6.954549 -1.662143 -6.560366 8.595191 -14.098445 35.696321 110.113981 55.009203 -110.591568 0.000000 0.000000 0.000000 
-9.517861 86.153740 6.193874 0.000000 0.000000 0.000000 -6.575093 -51.235356 -4.335958 -28.715324 5.319853 30.046316 43.457225 -13.993255 -9.423680 -12.392855 -1.679539 -10.118655 0.000000 0.000000 0.000000 -6.575093 -51.235356 -4.335958 -10.564109 -14.542745 -25.817591 37.626935 0.508639 -9.165073 -23.008351 -0.492876 29.227445 0.000000 0.000000 0.000000 -6.575093 -51.235356 -4.335958 0.000000 -0.000001 0.000000 9.131364 -0.462434 -1.212325 4.309234 -0.763698 -2.049178 0.000000 0.000000 0.000000 4.331709 -0.763623 -2.048698 -1.013268 3.089465 1.965820 0.000000 0.000000 0.000000 4.331709 -0.763623 -2.048698 -7.295147 1.596065 4.080633 -14.166325 35.477819 -6.707889 -35.558378 -87.759639 -33.089627 0.000000 0.000000 0.000000 4.331709 -0.763623 -2.048698 -7.680835 -6.057219 -9.063442 14.504566 -16.855085 34.471497 108.088727 58.252805 -110.772554 0.000000 0.000000 0.000000 
-10.731641 87.372559 6.631413 0.000000 0.000000 0.000000 -6.898751 -49.640558 -5.178671 -26.621584 5.858387 30.123194 39.891867 -14.412234 -9.293060 -11.226655 -1.916086 -9.415178 0.000000 0.000000 0.000000 -6.898751 -49.640558 -5.178671 -3.729175 -15.334770 -23.017654 29.550588 0.364795 -8.753714 -21.030485 -0.047181 29.375465 0.000000 0.000000 0.000000 -6.898751 -49.640558 -5.178671 0.000000 -0.000001 0.000000 8.820669 -0.288020 -1.022419 3.691370 -0.417035 -1.535715 0.000000 0.000000 0.000000 3.713851 -0.416931 -1.535245 0.042153 2.615797 1.996178 0.000000 0.000000 0.000000 3.713851 -0.416931 -1.535245 -7.868579 5.471429 5.982505 -19.907438 40.680617 2.944136 -95.962102 -81.577922 -90.844733 0.000000 0.000000 0.000000 3.713851 -0.416931 -1.535245 -8.764280 -11.311489 -11.685420 18.326566 -17.721595 33.088920 103.566520 61.391639 -107.585076 0.000000 0.000000 0.000000 
